/* XPM */
static char *result[] = {
/* columns rows colors chars-per-pixel */
"36 36 174 2 ",
"   c #090710",
".  c #090810",
"X  c #0A0810",
"o  c #0A0911",
"O  c #0B0913",
"+  c #0B0A13",
"@  c #0C0A15",
"#  c #0C0B15",
"$  c #0D0B16",
"%  c #0D0B17",
"&  c #0D0D19",
"*  c #0E0D19",
"=  c #0E0E1A",
"-  c #0F0E1B",
";  c #130B15",
":  c #100F1B",
">  c #110F1E",
",  c #120E1E",
"<  c #11111C",
"1  c #12101E",
"2  c #12111E",
"3  c #12101F",
"4  c #210A10",
"5  c #260A10",
"6  c #230C15",
"7  c #2E0B12",
"8  c #270F1B",
"9  c #28101E",
"0  c #0F1423",
"q  c #071925",
"w  c #121020",
"e  c #121120",
"r  c #131221",
"t  c #131122",
"y  c #131222",
"u  c #141220",
"i  c #141222",
"p  c #151422",
"a  c #151423",
"s  c #151623",
"d  c #161623",
"f  c #141324",
"g  c #151324",
"h  c #131725",
"j  c #151425",
"k  c #151525",
"l  c #161624",
"z  c #161526",
"x  c #171626",
"c  c #171627",
"v  c #171727",
"b  c #181927",
"n  c #1A1827",
"m  c #161628",
"M  c #181628",
"N  c #181728",
"B  c #111A28",
"V  c #181828",
"C  c #181829",
"Z  c #19182A",
"A  c #19192A",
"S  c #1B192A",
"D  c #1A1A2A",
"F  c #1B192C",
"G  c #1A1A2C",
"H  c #1B1B2D",
"J  c #1C1A2C",
"K  c #1D1B2E",
"L  c #1B1C2C",
"P  c #1B1C2D",
"I  c #1C1C2E",
"U  c #1D1C2F",
"Y  c #1C1D2F",
"T  c #1D1D2F",
"R  c #1E1D2E",
"E  c #1F1C30",
"W  c #1E1D30",
"Q  c #1E1D31",
"!  c #1E1F30",
"~  c #291420",
"^  c #2B1929",
"/  c #2F1A2A",
"(  c #2F1D2E",
")  c #381220",
"_  c #351E2E",
"`  c #341F2E",
"'  c #3F1B29",
"]  c #3E1B2A",
"[  c #201E31",
"{  c #201E32",
"}  c #1E2030",
"|  c #1F2031",
" . c #1F2133",
".. c #1A2334",
"X. c #1E2639",
"o. c #212035",
"O. c #222135",
"+. c #212335",
"@. c #242237",
"#. c #242337",
"$. c #222436",
"%. c #23263B",
"&. c #252539",
"*. c #252639",
"=. c #26253A",
"-. c #28263C",
";. c #2A273F",
":. c #2A283F",
">. c #2A293F",
",. c #292A3F",
"<. c #590A0F",
"1. c #450E16",
"2. c #4D0D1A",
"3. c #540A10",
"4. c #5A0E1A",
"5. c #451019",
"6. c #41141E",
"7. c #5C131D",
"8. c #790B0F",
"9. c #7E0B0F",
"0. c #670E10",
"q. c #6B0B10",
"w. c #770C10",
"e. c #7A0C10",
"r. c #451724",
"t. c #4C1622",
"y. c #4E1824",
"u. c #551521",
"i. c #571520",
"p. c #561622",
"a. c #412030",
"s. c #4C2132",
"d. c #2A2840",
"f. c #2A2A40",
"g. c #2D2B43",
"h. c #2E2C43",
"j. c #2F2E45",
"k. c #322F48",
"l. c #313048",
"z. c #323048",
"x. c #34334C",
"c. c #3A3852",
"v. c #840B0F",
"b. c #860B0F",
"n. c #9E0B0F",
"m. c #830D10",
"M. c #820D11",
"N. c #810E10",
"B. c #890B10",
"V. c #8F0B10",
"C. c #890C11",
"Z. c #8B0C10",
"A. c #8B0D11",
"S. c #8F0C10",
"D. c #920C10",
"F. c #940C10",
"G. c #960C10",
"H. c #9D0C11",
"J. c #9C0D11",
"K. c #9F0C11",
"L. c #A50C11",
"P. c #AF0C11",
"I. c #B70D12",
"U. c #C00D12",
"Y. c #84554D",
"T. c #966357",
"R. c #B56A60",
"E. c #A47267",
"W. c #B27867",
"Q. c #C6826F",
"!. c #D3957C",
"~. c #CAA28C",
"^. c #DDBCAA",
"/. c None",
/* pixels */
"/./././././././././././././././././././././././././././././././././././.",
"/./././././././././././././././././././././././././././././././././././.",
"/././././././././././././././././././././././././././.8././././././././.",
"/././././././././././././././././././././././././././.8././././././././.",
"/./././././././././././././././././././././././././.e.8././././././././.",
"/./././././././././././././././././././././././././.8.F.v./././././././.",
"/./././././././././././././././.i Q %.h /./././././.B.I.L.9././././././.",
"/./././././././././././././././.E X.q B < /././././.Z.U.U.H.8./././././.",
"/././././././././././././././.i ;.` ~ 2.s /./././.b.A.0.n.P.Z.e././././.",
"/././././././././././././././., ;...0 g D /./././.D.N.m.3.G.S./././././.",
"/./././././././././././.z.x.*.p K -.W v S 1 /././.D.J.w.q.M.V./././././.",
"/./././././././././././.d.h.h.=.[ J > n n - & /./.b.C.4 m.K././././././.",
"/./././././././././././.,.I k.E 7.y.:.E 6 * - = /./.<.. H.Z././././././.",
"/./././././././././././.H H U ) ' r.s.] 8 ; * , /./.5 X /./././././././.",
"/./././././././.~.^.E./.G C c } t.p.a._ 1./.- R c./.. X /./././././././.",
"/././././././.R.T.W.Y./.o.O././.! ^ i.6././.l +.l./.. X /./././././././.",
"/./././././././.Q.!./.G O.g././.4.( F 9 /././.z.+.+.X /././././././././.",
"/././././././././././.j.#././././ u.5.7 . /././.,.&.o /././././././././.",
"/./././././././././.>.-.f././.c I T u e % /././.z.>.k /././././././././.",
"/././././././././.| O.Y /./.N ! G [ e G > O /././.1 V /././././././././.",
"/././././././././././././.M g G c : C c t @ /./././././././././././././.",
"/././././././././././././.f A C @.x w G g - /./././././././././././././.",
"/././././././././././././.z Z @.#.d r $. .a /././.X /./././././././././.",
"/./././././././././././././.{ ;.=./.$ /.L b /././.X /./././././././././.",
"/./././././././././././././.G +.i /./.< > 2 /./.X /././././././././././.",
"/././././././././././././.m  .G /././.* * + /./.X /././././././././././.",
"/./././././././././././././.G t /././.# .   /./.X /././././././././././.",
"/././././././././././././.$.c /./././.. . /././.X /././././././././././.",
"/././././././././././././.| j /./././.. X /././././././././././././././.",
"/././././././././././././.P y /././././.3 /././././././././././././././.",
"/./././././././././././.$.c /./././././.i /././././././././././././././.",
"/././././././././././././.j /./././././././././././././././././././././.",
"/./././././././././././././././././././././././././././././././././././.",
"/./././././././././././././././././././././././././././././././././././.",
"/./././././././././././././././././././././././././././././././././././.",
"/./././././././././././././././././././././././././././././././././././."
};
