/* XPM */
static char *result[] = {
/* columns rows colors chars-per-pixel */
"36 36 166 2 ",
"   c #090810",
".  c #0A0912",
"X  c #0C0A15",
"o  c #0C0B15",
"O  c #0D0D17",
"+  c #0D0C18",
"@  c #0E0C18",
"#  c #0E0D19",
"$  c #0F0F19",
"%  c #0F0E1B",
"&  c #170B15",
"*  c #100E1C",
"=  c #100F1C",
"-  c #100E1D",
";  c #110F1E",
":  c #11101D",
">  c #11101F",
",  c #12111E",
"<  c #12121F",
"1  c #240D17",
"2  c #260E19",
"3  c #290E18",
"4  c #3A0A10",
"5  c #3F0B10",
"6  c #3B0D15",
"7  c #28101E",
"8  c #37101A",
"9  c #36101D",
"0  c #0D1524",
"q  c #121020",
"w  c #131320",
"e  c #131221",
"r  c #131122",
"t  c #141221",
"y  c #141322",
"u  c #151322",
"i  c #151623",
"p  c #141324",
"a  c #151324",
"s  c #151425",
"d  c #171525",
"f  c #161526",
"g  c #171627",
"h  c #181625",
"j  c #181827",
"k  c #1A1827",
"l  c #171628",
"z  c #181528",
"x  c #181728",
"c  c #1A172A",
"v  c #131A28",
"b  c #181828",
"n  c #181829",
"m  c #191929",
"M  c #1A1929",
"N  c #19182A",
"B  c #19192A",
"V  c #1A192B",
"C  c #1B192C",
"Z  c #1A1A2C",
"A  c #1C1A2D",
"S  c #1D1B2F",
"D  c #1C1C2E",
"F  c #1D1C2F",
"G  c #1E1C2E",
"H  c #1E1D2E",
"J  c #1E1D2F",
"K  c #1F1C30",
"L  c #1F1D31",
"P  c #1D1E30",
"I  c #1F1E30",
"U  c #1E1F30",
"Y  c #271520",
"T  c #2D1827",
"R  c #2D1C2C",
"E  c #3D1927",
"W  c #3C1A27",
"Q  c #341828",
"!  c #341B2C",
"~  c #341F2E",
"^  c #3F1B29",
"/  c #3E1B2A",
"(  c #201D30",
")  c #201D32",
"_  c #201E32",
"`  c #201F32",
"'  c #201E33",
"]  c #142030",
"[  c #162233",
"{  c #1E2030",
"}  c #1F2032",
"|  c #1F2133",
" . c #222135",
".. c #212335",
"X. c #232235",
"o. c #222335",
"O. c #242237",
"+. c #212438",
"@. c #26243A",
"#. c #26253A",
"$. c #27263B",
"%. c #27273B",
"&. c #28253A",
"*. c #28273C",
"=. c #2A273F",
"-. c #26283D",
";. c #28283D",
":. c #292A3F",
">. c #3B283C",
",. c #410A10",
"<. c #4A0F1A",
"1. c #42111D",
"2. c #5C131D",
"3. c #790A0F",
"4. c #790B0F",
"5. c #7E0B0F",
"6. c #7F0B0F",
"7. c #6F0B10",
"8. c #750D10",
"9. c #7C0C10",
"0. c #7D0E11",
"q. c #461522",
"w. c #441623",
"e. c #4A1520",
"r. c #4E1824",
"t. c #461C2A",
"y. c #551C29",
"u. c #601622",
"i. c #2A2A40",
"p. c #2C2941",
"a. c #2C2B42",
"s. c #2C2C42",
"d. c #2E2C43",
"f. c #2F2E46",
"g. c #33324B",
"h. c #393752",
"j. c #3B3854",
"k. c #413D5B",
"l. c #890C0F",
"z. c #900C0F",
"x. c #8B0C11",
"c. c #8E0C10",
"v. c #8F0D11",
"b. c #910C10",
"n. c #930C10",
"m. c #950C10",
"M. c #940E11",
"N. c #980C10",
"B. c #9D0C11",
"V. c #A10D11",
"C. c #A70C10",
"Z. c #AA0C11",
"A. c #AF0C11",
"S. c #AE0D11",
"D. c #B50D12",
"F. c #C00D12",
"G. c #84554D",
"H. c #B56A60",
"J. c #A57C6D",
"K. c #C17B6B",
"L. c #B98879",
"P. c #CD8D77",
"I. c #D99E82",
"U. c #D9A38B",
"Y. c #F8DFC9",
"T. c None",
/* pixels */
"T.T.T.T.T.T.T.T.T.T.T.T.T.T.T.T.T.T.T.T.T.T.T.T.T.T.T.T.T.T.T.T.T.T.T.T.",
"T.T.T.T.T.T.T.T.T.T.T.T.T.T.T.T.T.T.T.T.T.T.T.T.T.T.T.4.T.T.T.T.T.T.T.T.",
"T.T.T.T.T.T.T.T.T.T.T.T.T.T.T.T.T.T.T.T.T.T.T.T.T.T.T.T.T.T.T.T.T.T.T.T.",
"T.T.T.T.T.T.T.T.T.T.T.T.T.T.T.T.T.T.T.T.T.T.T.T.T.T.T.4.T.T.T.T.T.T.T.T.",
"T.T.T.T.T.T.T.T.T.T.T.T.T.T.T.T.T.T.T.T.T.T.T.T.T.T.T.S.4.T.T.T.T.T.T.T.",
"T.T.T.T.T.T.T.T.T.T.T.T.T.T.T.T.T.z ) y T.T.T.T.T.T.n.F.4.T.T.T.T.T.T.T.",
"T.T.T.T.T.T.T.T.T.T.T.T.T.T.T.T.c +.] v $ T.T.T.T.T.Z.F.B.5.4.T.T.T.T.T.",
"T.T.T.T.T.T.T.T.T.T.T.T.T.T.T.T.=.~ Y <.i T.T.T.T.b.D.M.A.N.4.T.T.T.T.T.",
"T.T.T.T.T.T.T.T.T.T.T.T.T.T.T.r =.[ 0 r i T.T.T.T.b.0.8.3.C.b.T.T.T.T.T.",
"T.T.T.T.T.T.T.T.T.T.T.T.h.j.T.: O.-.n n G h T.T.T.b.v.z.4 9.b.T.T.T.T.T.",
"T.T.T.T.T.T.T.T.T.T.T.T.d.f.a.I G ( g d k % # T.T.6.x.5 l.V.c.T.T.T.T.T.",
"T.T.T.T.T.T.T.T.T.T.T.T.$. .f.d.E X.M &.# % + T.T.4.7.  M.m.T.T.T.T.T.T.",
"T.T.T.T.T.T.T.T.T.T.T.T.U D ' 9 E 2.>.! 2 X % r T.T.,.  4.T.T.T.T.T.T.T.",
"T.T.T.T.T.T.T.T.U.Y.T.T.N B V T r.^ y./ 8 1 @ u T.T.    T.T.T.T.T.T.T.T.",
"T.T.T.T.T.T.T.H.J.L.G.T.L F T.T.R w.t.W T.T.< o.g.T.    T.T.T.T.T.T.T.T.",
"T.T.T.T.T.T.T.T.K.I.K.T. .p.T.T.x U 1.7 T.T.T...:.:.  T.T.T.T.T.T.T.T.T.",
"T.T.T.T.T.T.T.T.T.P.T.s. .:.T.T.q.u.e.6   T.T.k.:.%.  T.T.T.T.T.T.T.T.T.",
"T.T.T.T.T.T.T.T.T.T.T.f.;.T.T.r U Q 3 & . T.T.T.i.*.# T.T.T.T.T.T.T.T.T.",
"T.T.T.T.T.T.T.T.T.D @.` T.T.l D Z J t n % . T.T.T._ B T.T.T.T.T.T.T.T.T.",
"T.T.T.T.T.T.T.T.T...P T.T.T.s Z Z H m Z r o T.T.T.T.T.T.T.T.T.T.T.T.T.T.",
"T.T.T.T.T.T.T.T.T.T.T.T.T.s n Z K u q g r # T.T.T.T.T.T.T.T.T.T.T.T.T.T.",
"T.T.T.T.T.T.T.T.T.T.T.T.T.p B C @.b e } Z > T.T.T.  T.T.T.T.T.T.T.T.T.T.",
"T.T.T.T.T.T.T.T.T.T.T.T.T.T.S =.#.T.= T.{ j T.T.T.  T.T.T.T.T.T.T.T.T.T.",
"T.T.T.T.T.T.T.T.T.T.T.T.T.T.A #.x T.T..., w T.T.T.T.T.T.T.T.T.T.T.T.T.T.",
"T.T.T.T.T.T.T.T.T.T.T.T.T.g | U r T.T.X ; O T.T.  T.T.T.T.T.T.T.T.T.T.T.",
"T.T.T.T.T.T.T.T.T.T.T.T.T.l U a T.T.T.- .   T.T.  T.T.T.T.T.T.T.T.T.T.T.",
"T.T.T.T.T.T.T.T.T.T.T.T.T.T.x r T.T.T.    T.T.T.  T.T.T.T.T.T.T.T.T.T.T.",
"T.T.T.T.T.T.T.T.T.T.T.T.T...x T.T.T.T.    T.T.T.  T.T.T.T.T.T.T.T.T.T.T.",
"T.T.T.T.T.T.T.T.T.T.T.T.T.P r T.T.T.T.  * T.T.T.T.T.T.T.T.T.T.T.T.T.T.T.",
"T.T.T.T.T.T.T.T.T.T.T.T...n T.T.T.T.T.T.r T.T.T.T.T.T.T.T.T.T.T.T.T.T.T.",
"T.T.T.T.T.T.T.T.T.T.T.T.T.f T.T.T.T.T.T.T.T.T.T.T.T.T.T.T.T.T.T.T.T.T.T.",
"T.T.T.T.T.T.T.T.T.T.T.T.T.T.T.T.T.T.T.T.T.T.T.T.T.T.T.T.T.T.T.T.T.T.T.T.",
"T.T.T.T.T.T.T.T.T.T.T.T.T.T.T.T.T.T.T.T.T.T.T.T.T.T.T.T.T.T.T.T.T.T.T.T.",
"T.T.T.T.T.T.T.T.T.T.T.T.T.T.T.T.T.T.T.T.T.T.T.T.T.T.T.T.T.T.T.T.T.T.T.T.",
"T.T.T.T.T.T.T.T.T.T.T.T.T.T.T.T.T.T.T.T.T.T.T.T.T.T.T.T.T.T.T.T.T.T.T.T.",
"T.T.T.T.T.T.T.T.T.T.T.T.T.T.T.T.T.T.T.T.T.T.T.T.T.T.T.T.T.T.T.T.T.T.T.T."
};
