/* XPM */
static char *result[] = {
/* columns rows colors chars-per-pixel */
"36 36 160 2 ",
"   c #090810",
".  c #0A0912",
"X  c #0B0A13",
"o  c #0C0A15",
"O  c #0C0B16",
"+  c #0D0B17",
"@  c #0D0C17",
"#  c #0E0D19",
"$  c #0F0E1B",
"%  c #130B15",
"&  c #100F1B",
"*  c #110F1E",
"=  c #11111C",
"-  c #12101E",
";  c #12111E",
":  c #12101F",
">  c #210A10",
",  c #250910",
"<  c #230C15",
"1  c #290910",
"2  c #2E0B12",
"3  c #270F1B",
"4  c #28101E",
"5  c #0F1423",
"6  c #071925",
"7  c #121020",
"8  c #121120",
"9  c #131221",
"0  c #131122",
"q  c #141220",
"w  c #151422",
"e  c #151423",
"r  c #151623",
"t  c #141324",
"y  c #151324",
"u  c #151425",
"i  c #141725",
"p  c #161624",
"a  c #161625",
"s  c #161526",
"d  c #171626",
"f  c #171627",
"g  c #171727",
"h  c #181827",
"j  c #181927",
"k  c #1A1827",
"l  c #171628",
"z  c #181728",
"x  c #111A28",
"c  c #181829",
"v  c #19182A",
"b  c #19192A",
"n  c #1B192A",
"m  c #1A1A2A",
"M  c #1B192C",
"N  c #1A1A2C",
"B  c #1B1A2C",
"V  c #1B1B2D",
"C  c #1C1A2C",
"Z  c #1C1A2D",
"A  c #1D1B2E",
"S  c #1B1C2C",
"D  c #1B1C2D",
"F  c #1C1C2E",
"G  c #1D1C2F",
"H  c #1D1D2F",
"J  c #1E1D2E",
"K  c #1F1C30",
"L  c #1E1D30",
"P  c #1E1D31",
"I  c #1D1E30",
"U  c #1E1F30",
"Y  c #291420",
"T  c #2B1929",
"R  c #2F1A2A",
"E  c #2F1D2E",
"W  c #381220",
"Q  c #351E2E",
"!  c #341F2E",
"~  c #3F1B29",
"^  c #3E1B2A",
"/  c #201E31",
"(  c #201E32",
")  c #201F32",
"_  c #1F2032",
"`  c #1F2133",
"'  c #1A2334",
"]  c #1E2639",
"[  c #222135",
"{  c #212335",
"}  c #242237",
"|  c #242337",
" . c #23263B",
".. c #252539",
"X. c #252639",
"o. c #26243A",
"O. c #26253A",
"+. c #26273A",
"@. c #28263C",
"#. c #2A273F",
"$. c #28283D",
"%. c #2A283F",
"&. c #2A293F",
"*. c #292A3F",
"=. c #590A0F",
"-. c #450F17",
";. c #4D0D1A",
":. c #540A10",
">. c #590E19",
",. c #451019",
"<. c #41141E",
"1. c #5C131D",
"2. c #790B0F",
"3. c #670E10",
"4. c #6B0B10",
"5. c #770C10",
"6. c #4C1622",
"7. c #4E1824",
"8. c #481C29",
"9. c #551521",
"0. c #571520",
"q. c #561622",
"w. c #412030",
"e. c #4C2132",
"r. c #2C2941",
"t. c #2C2C42",
"y. c #2E2C43",
"u. c #2F2E46",
"i. c #322F48",
"p. c #313048",
"a. c #34334C",
"s. c #393752",
"d. c #820B0F",
"f. c #830B0F",
"g. c #850B0F",
"h. c #9E0B0F",
"j. c #830D10",
"k. c #810E10",
"l. c #860D11",
"z. c #890C11",
"x. c #8B0C10",
"c. c #8B0D11",
"v. c #8C0C10",
"b. c #910C10",
"n. c #960C10",
"m. c #9D0C11",
"M. c #9C0D11",
"N. c #A60C10",
"B. c #A80D11",
"V. c #AE0D11",
"C. c #84554D",
"Z. c #B56A60",
"A. c #A57C6D",
"S. c #C17B6B",
"D. c #B98879",
"F. c #CD8D77",
"G. c #D99E82",
"H. c #D9A38B",
"J. c #F8DFC9",
"K. c None",
/* pixels */
"K.K.K.K.K.K.K.K.K.K.K.K.K.K.K.K.K.K.K.K.K.K.K.K.K.K.K.K.K.K.K.K.K.K.K.K.",
"K.K.K.K.K.K.K.K.K.K.K.K.K.K.K.K.K.K.K.K.K.K.K.K.K.K.K.K.K.K.K.K.K.K.K.K.",
"K.K.K.K.K.K.K.K.K.K.K.K.K.K.K.K.K.K.K.K.K.K.K.K.K.K.K.K.K.K.K.K.K.K.K.K.",
"K.K.K.K.K.K.K.K.K.K.K.K.K.K.K.K.K.K.K.K.K.K.K.K.K.K.K.K.K.K.K.K.K.K.K.K.",
"K.K.K.K.K.K.K.K.K.K.K.K.K.K.K.K.K.K.K.K.K.K.K.K.K.K.K.K.2.K.K.K.K.K.K.K.",
"K.K.K.K.K.K.K.K.K.K.K.K.K.K.K.K.K.K.K.K.K.K.K.K.K.K.K.2.f.K.K.K.K.K.K.K.",
"K.K.K.K.K.K.K.K.K.K.K.K.K.K.K.K.0 P  .i K.K.K.K.K.K.K.d.m.2.K.K.K.K.K.K.",
"K.K.K.K.K.K.K.K.K.K.K.K.K.K.K.K.K ] 6 x = K.K.K.K.K.g.V.V.g.2.K.K.K.K.K.",
"K.K.K.K.K.K.K.K.K.K.K.K.K.K.K.0 #.! Y ;.r K.K.K.K.x.c.3.h.N.x.K.K.K.K.K.",
"K.K.K.K.K.K.K.K.K.K.K.K.K.K.K.* #.' 5 y m K.K.K.K.b.k.j.:.n.b.K.K.K.K.K.",
"K.K.K.K.K.K.K.K.K.K.K.K.p.a.X.w A @.L g n - K.K.K.v.M.5.4.l.b.K.K.K.K.K.",
"K.K.K.K.K.K.K.K.K.K.K.K.#.y.y.O./ C * k k $ # K.K.f.z.> j.B.g.K.K.K.K.K.",
"K.K.K.K.K.K.K.K.K.K.K.K.*.F i.K 1.7.%.K < # $ # K.K.=.  m.f.K.K.K.K.K.K.",
"K.K.K.K.K.K.K.K.H.J.K.K.V V G W ~ 8.e.^ 3 % # * K.K., 1 2.K.K.K.K.K.K.K.",
"K.K.K.K.K.K.K.Z.A.D.C.K.Z M B U 6.q.w.Q -.K.$ J s.K.    K.K.K.K.K.K.K.K.",
"K.K.K.K.K.K.K.K.S.G.S.K.[ r.K.K.U T 0.<.K.K.r { p.K.    K.K.K.K.K.K.K.K.",
"K.K.K.K.K.K.K.K.K.F.K.t.[ +.K.K.>.E M 4 K.K.K.p.{ {   K.K.K.K.K.K.K.K.K.",
"K.K.K.K.K.K.K.K.K.K.K.u.$.K.K.K.R 9.,.2   K.K.K.*.... K.K.K.K.K.K.K.K.K.",
"K.K.K.K.K.K.K.K.K.F o.) K.K.K.f F H q 8 + K.K.K.p.&.a K.K.K.K.K.K.K.K.K.",
"K.K.K.K.K.K.K.K.K.{ I K.K.K.z U N / 8 N * X K.K.K.* h K.K.K.K.K.K.K.K.K.",
"K.K.K.K.K.K.K.K.K.K.K.K.K.f y N f & c f 0 o K.K.K.K.K.K.K.K.K.K.K.K.K.K.",
"K.K.K.K.K.K.K.K.K.K.K.K.K.t b c } d 7 N y $ K.K.K.K.K.K.K.K.K.K.K.K.K.K.",
"K.K.K.K.K.K.K.K.K.K.K.K.K.s v } | p 9 { ` e K.K.K.  K.K.K.K.K.K.K.K.K.K.",
"K.K.K.K.K.K.K.K.K.K.K.K.K.K.( #.O.K.@ K.S j K.K.K.  K.K.K.K.K.K.K.K.K.K.",
"K.K.K.K.K.K.K.K.K.K.K.K.K.K.N { 0 K.K.= * ; K.K.  K.K.K.K.K.K.K.K.K.K.K.",
"K.K.K.K.K.K.K.K.K.K.K.K.K.l ` N K.K.K.# # X K.K.  K.K.K.K.K.K.K.K.K.K.K.",
"K.K.K.K.K.K.K.K.K.K.K.K.K.K.N 0 K.K.K.O     K.K.  K.K.K.K.K.K.K.K.K.K.K.",
"K.K.K.K.K.K.K.K.K.K.K.K.K.{ f K.K.K.K.    K.K.K.  K.K.K.K.K.K.K.K.K.K.K.",
"K.K.K.K.K.K.K.K.K.K.K.K.K._ u K.K.K.K.    K.K.K.K.K.K.K.K.K.K.K.K.K.K.K.",
"K.K.K.K.K.K.K.K.K.K.K.K.K.D 0 K.K.K.K.K.: K.K.K.K.K.K.K.K.K.K.K.K.K.K.K.",
"K.K.K.K.K.K.K.K.K.K.K.K.{ f K.K.K.K.K.K.0 K.K.K.K.K.K.K.K.K.K.K.K.K.K.K.",
"K.K.K.K.K.K.K.K.K.K.K.K.K.u K.K.K.K.K.K.K.K.K.K.K.K.K.K.K.K.K.K.K.K.K.K.",
"K.K.K.K.K.K.K.K.K.K.K.K.K.K.K.K.K.K.K.K.K.K.K.K.K.K.K.K.K.K.K.K.K.K.K.K.",
"K.K.K.K.K.K.K.K.K.K.K.K.K.K.K.K.K.K.K.K.K.K.K.K.K.K.K.K.K.K.K.K.K.K.K.K.",
"K.K.K.K.K.K.K.K.K.K.K.K.K.K.K.K.K.K.K.K.K.K.K.K.K.K.K.K.K.K.K.K.K.K.K.K.",
"K.K.K.K.K.K.K.K.K.K.K.K.K.K.K.K.K.K.K.K.K.K.K.K.K.K.K.K.K.K.K.K.K.K.K.K."
};
