/* XPM */
static char *c89ac981ef644780e936bba8c356735b3InY66WMytDty6y7[] = {
/* columns rows colors chars-per-pixel */
"38 38 213 2 ",
"   c None",
".  c #F0F1F1",
"X  c #4D92BC",
"o  c #535D63",
"O  c #4380A4",
"+  c #4C8FB8",
"@  c #4D93BD",
"#  c #4C90B9",
"$  c #4E94BF",
"%  c #437DA0",
"&  c #2F5A73",
"*  c #FFD7A8",
"=  c #264252",
"-  c #EFF0F1",
";  c #4E95C0",
":  c #8E9497",
">  c #407B9F",
",  c #9AA0A3",
"<  c #447EA2",
"1  c #4B8EB7",
"2  c #E4E6E6",
"3  c #417595",
"4  c #4A8CB4",
"5  c #4581A5",
"6  c #4683A7",
"7  c #BABDB0",
"8  c #2A4656",
"9  c #ECEDED",
"0  c #A0A6A9",
"q  c #FFDCAB",
"w  c #CACDCF",
"e  c #474C4A",
"r  c #FFD9A7",
"t  c #BCC0C2",
"y  c gray99",
"u  c #D8DADB",
"i  c #243B47",
"p  c #407697",
"a  c #27404E",
"s  c #959EA3",
"d  c #FEFEFE",
"f  c #EEEFEF",
"g  c #3C4950",
"h  c #3F7596",
"j  c #DBDEDF",
"k  c #4D91BB",
"l  c #1C2D37",
"z  c #4F84A4",
"x  c #356785",
"c  c #6E7A7F",
"v  c #5F6B70",
"b  c #F2F3F3",
"n  c #32647F",
"m  c #CDD2D3",
"M  c #243D4A",
"N  c #989DA0",
"B  c #EEC698",
"V  c #264C63",
"C  c #24333E",
"Z  c #E0E2E3",
"A  c #C1D6E3",
"S  c #687277",
"D  c #4888AE",
"F  c #2F3D42",
"G  c #C1C4C7",
"H  c #203541",
"J  c #B9BCBD",
"K  c #A6A395",
"L  c #3C484D",
"P  c #4E93BE",
"I  c #545F65",
"U  c #3C6A88",
"Y  c #7D8588",
"T  c #4E5A60",
"R  c #346681",
"E  c #F3C897",
"W  c #294F66",
"Q  c #2B3342",
"!  c #F5F6F6",
"~  c #396A87",
"^  c #E9C69C",
"/  c #8B9496",
"(  c #4F97C3",
")  c #232F39",
"_  c #35627D",
"`  c #A0A4A6",
"'  c #D0D2D4",
"]  c #427B9D",
"[  c #4784A9",
"{  c #3F4C53",
"}  c #457FA1",
"|  c #3B6C89",
" . c #437897",
".. c #2C4B5E",
"X. c #488AB1",
"o. c #263D4A",
"O. c #E2E3E4",
"+. c #414E54",
"@. c #304149",
"#. c #21323B",
"$. c #DBDCDC",
"%. c #2C5872",
"&. c #D6C2A4",
"*. c #4E5D61",
"=. c #822A7F",
"-. c #462A4F",
";. c #8AACC0",
":. c #2A3A42",
">. c #35434A",
",. c #7D8B93",
"<. c #5B2260",
"1. c #28243B",
"2. c #42728E",
"3. c #4B8BB3",
"4. c #A2AAA2",
"5. c #A0C1D5",
"6. c #48555B",
"7. c #6E8C99",
"8. c #792977",
"9. c #517184",
"0. c #A5ADB2",
"q. c #2F2740",
"w. c #B4CBD8",
"e. c #3D4D56",
"r. c #33586D",
"t. c #817B8C",
"y. c #5A90B1",
"u. c #396178",
"i. c #36314A",
"p. c #98BCD1",
"a. c #B7AE9A",
"s. c #80969B",
"d. c #E3C49C",
"f. c #552C5D",
"g. c #ACADA0",
"h. c #375E6E",
"j. c #2B373D",
"k. c #8EA1A3",
"l. c #92288A",
"z. c #3E6379",
"x. c #345161",
"c. c #4B616E",
"v. c #3A2348",
"b. c #ADB2B4",
"n. c #3E535F",
"m. c #8A9093",
"M. c #314B59",
"N. c #3B6985",
"B. c #1F303A",
"V. c #455D6B",
"C. c #3C7496",
"Z. c #8F969A",
"A. c #BCC8D0",
"S. c #375977",
"D. c #6694B0",
"F. c #9BA2A6",
"G. c #5E2D64",
"H. c #324047",
"J. c #5295BD",
"K. c #48687B",
"L. c #767C7F",
"P. c #335E77",
"I. c #A7B4AF",
"U. c #4C90B8",
"Y. c #4686AE",
"T. c #294A5E",
"R. c #423154",
"E. c #646F74",
"W. c #DFE1E2",
"Q. c #BEC1B4",
"!. c #27363E",
"~. c #19303D",
"^. c #2E5466",
"/. c #372A47",
"(. c #808C8E",
"). c #A7C4D5",
"_. c #1C3341",
"`. c #91A4A6",
"'. c #386884",
"]. c #342B43",
"[. c #295060",
"{. c #ABB0A6",
"}. c #5290B5",
"|. c #939A9D",
" X c #4187B2",
".X c #5287A7",
"XX c #6C7478",
"oX c #576268",
"OX c #A1AFB6",
"+X c #AEB5B9",
"@X c #5796BA",
"#X c #4D575D",
"$X c #253843",
"%X c #567282",
"&X c #38637D",
"*X c #5D2663",
"=X c #28353D",
"-X c #EDC89C",
";X c #365E77",
":X c #273B46",
">X c #3B294A",
",X c #244355",
"<X c #1C3645",
"1X c #4F8DB1",
"2X c #A9A696",
"3X c #CCD2D6",
"4X c #848C90",
"5X c #8EA5A9",
"6X c #8E9A9B",
"7X c #A2C3D8",
"8X c #852880",
"9X c #34454D",
"0X c #747D82",
/* pixels */
"                                                                            ",
"                                                                            ",
"                                                                            ",
"                                                                            ",
"                                                                            ",
"                                                                            ",
"                                                                            ",
"                    y . - . . . . . . . . . . . - ! d                       ",
"                    j v T o o o I I o o o o o o #X4Xy                       ",
"                  m c #.,XW V W ~.<X& & & & & & %.K.|.9                     ",
"              y j t.q.C '.y.D.2.c.9.# P ; ; $ $ ( > x.0.9                   ",
"              . v G.8.Q n p.3Xe.b.w.6 + # + X X @ # 6 M.N                   ",
"              - *.<.8XQ n 5.u g J A 5 1 &X;X# @ $ < ..l :                   ",
"              - T v.f.C R 7X$.L J A 5 1 | N.k @ $ 6 r.H Z.                  ",
"              b 0XF ) i.S.;.A.n.OX).5 + P @ X X X $ 4 = :                   ",
"              d b (./.=.R.h..X .z z O + @ X X X X $ 3.= :                   ",
"                  6X>Xl.-.[.> < > > O # @ @ ; ; ; ( 1 = :                   ",
"                  / 1.*X].^.O % % % < D # [ U U ~ x _ _./                   ",
"                  0 g { =X..h % % < O O 1 p o.#.H.+.+.g 0                   ",
"                  . O.u oXl 8 p < [ + + k U.] o.m.2 Z W.-                   ",
"                        ' XXi 3 s.g.7 7 7 Q.{.L F.                          ",
"                    f t t L.i 3 2XE r r r q -Xe s                           ",
"                    m >.$X:X8  .K B * * * q ^ e s                           ",
"                    w @.R 6 O } K B * * * q ^ e s                           ",
"                    w :.T.3 X.} 7.k.I.d.E &.`.9X,                           ",
"                    j S j.= | ] O  X@X4.a.5XY.a ,                           ",
"                      f S ) a h 4 + 3.1X}.J.D a ,                           ",
"                        Z Y i h k h = 8 ~ 4 X.M N                           ",
"                          ` M p x %XY F P.C.u.,.'                           ",
"                          , H _ V.` 2 { V z.E.2                             ",
"                          0 !.@.+X  O.6.B.c f d                             ",
"                          2 G G 9   ! w t u                                 ",
"                                                                            ",
"                                                                            ",
"                                                                            ",
"                                                                            ",
"                                                                            ",
"                                                                            "
};
