/* XPM */
static char *_fa7585ad2f747bbe7c40f11ca7cedcdH2VfziZ5at0Xkjoh[] = {
/* columns rows colors chars-per-pixel */
"28 28 6 1 ",
"  c None",
". c #A22633",
"X c #BE4A2F",
"o c #D77643",
"O c #E4A672",
"+ c #EAD4AA",
/* pixels */
"                            ",
"                            ",
"                            ",
"                            ",
"                            ",
"                   +++      ",
"            XXXX  +++++     ",
"           XXXoXXO+++OO     ",
"          XXXoXXXXO+O       ",
"         XXXoooXXXXO        ",
"        XXXoooXXX.X.        ",
"       XXXoXoXXXXX...       ",
"      .XXoXXXXX.X.X..       ",
"      .XXXoXXXXX.....       ",
"      ..XXXXXXX......       ",
"      ...XXXXX......        ",
"       ...X.X.X....         ",
"       O...X......          ",
"      OOO........           ",
"    +++OOO......            ",
"    ++++O  ....             ",
"      +O                    ",
"      OO                    ",
"                            ",
"                            ",
"                            ",
"                            ",
"                            "
};
