/* XPM */
static char *af7dfaa658e34a9e864f6c5c0f62da5fT7Hy3m0hh3Y3Mfq4[] = {
/* columns rows colors chars-per-pixel */
"38 36 161 2 ",
"   c None",
".  c #331A19",
"X  c #351B1A",
"o  c #361C1B",
"O  c #381E1D",
"+  c #391F1E",
"@  c #3A1F1E",
"#  c #3B201F",
"$  c #341A25",
"%  c #391E29",
"&  c #3C1E2B",
"*  c #3C1F2B",
"=  c #331934",
"-  c #3D2120",
";  c #3F202E",
":  c #501931",
">  c #561832",
",  c #6D1239",
"<  c #402423",
"1  c #422524",
"2  c #432625",
"3  c #472827",
"4  c #40212F",
"5  c #41212F",
"6  c #42222F",
"7  c #43292A",
"8  c #4A2B2A",
"9  c #4B2C2B",
"0  c #492E2E",
"q  c #4D2D2C",
"w  c #432532",
"e  c #442432",
"r  c #452432",
"t  c #442533",
"y  c #462533",
"u  c #472534",
"i  c #482634",
"p  c #482736",
"a  c #4A2736",
"s  c #462935",
"d  c #492B38",
"f  c #4B2A38",
"g  c #4E2939",
"h  c #4C2B39",
"j  c #4F2A3A",
"k  c #502E3D",
"l  c #4D3131",
"z  c #4C3435",
"x  c #543D3F",
"c  c #563D3F",
"v  c #652232",
"b  c #6D2B3D",
"n  c #543140",
"m  c #573343",
"M  c #533743",
"N  c #583444",
"B  c #5A3545",
"V  c #5C3747",
"C  c #563F40",
"Z  c #632D44",
"A  c #732647",
"S  c #782D49",
"D  c #623246",
"F  c #693B4F",
"G  c #442B61",
"H  c #4B3169",
"J  c #4C326B",
"K  c #4D326C",
"L  c #50346F",
"P  c #5C3F6E",
"I  c #523671",
"U  c #533873",
"Y  c #583C79",
"T  c #5A3D7B",
"R  c #5C3E7D",
"E  c #5A4042",
"W  c #5F424E",
"Q  c #634451",
"!  c #644653",
"~  c #674850",
"^  c #654E52",
"/  c #694851",
"(  c #6C4A5A",
")  c #6A4E5A",
"_  c #675153",
"`  c #685054",
"'  c #6A5357",
"]  c #6A505B",
"[  c #604265",
"{  c #674A6D",
"}  c #6E5069",
"|  c #725B60",
" . c #745E61",
".. c #7C5969",
"X. c #61467B",
"o. c #745575",
"O. c #70597F",
"+. c #796366",
"@. c #7E686E",
"#. c #91133C",
"$. c #9B103F",
"%. c #A4133E",
"&. c #AC163D",
"*. c #B9193B",
"=. c #BD1B3A",
"-. c #C31C39",
";. c #C01C3A",
":. c #C41D39",
">. c #C61D39",
",. c #CE2038",
"<. c #8A0B41",
"1. c #841142",
"2. c #822F42",
"3. c #922C4E",
"4. c #9E2E51",
"5. c #94434A",
"6. c #914766",
"7. c #856071",
"8. c #846271",
"9. c #806570",
"0. c #876675",
"q. c #81607A",
"w. c #8D6879",
"e. c #877177",
"r. c #887378",
"t. c #8B757C",
"y. c #8A747D",
"u. c #8C767E",
"i. c #8C767F",
"p. c #5F4181",
"a. c #755E84",
"s. c #775C8E",
"d. c #826C80",
"f. c #846E8E",
"g. c #8F7A81",
"h. c #957282",
"j. c #927581",
"k. c #907882",
"l. c #917B83",
"z. c #937F85",
"x. c #947E87",
"c. c #9C7988",
"v. c #8F769A",
"b. c #937C92",
"n. c #97828A",
"m. c #98808A",
"M. c #99858D",
"N. c #9C878F",
"B. c #9E8A92",
"V. c #A18D94",
"C. c #A08C9F",
"Z. c #A8949F",
"A. c #AB979F",
"S. c #AD9AA1",
"D. c #AF9CA4",
"F. c #A490AA",
"G. c #B69FA8",
"H. c #B4A2A9",
"J. c #B7A4AB",
"K. c #B9A7AE",
"L. c #BEACB3",
/* pixels */
"                                                                            ",
"                                                                            ",
"                                                                            ",
"                            k p r                                           ",
"                            k g r r r                                       ",
"                              k h p r u r                                   ",
"                                k g u 6 r r                                 ",
"                                  k g u r r r                               ",
"                                    i f 4 e r r                             ",
"                                    & 5.s ; r r r                           ",
"                                  =.> x.u.& * ; 4 6                         ",
"                              ;.,.*.#.A 3.;.  ; & &                         ",
"                          ;.&.$.&.$.&.<.%.>.,.                              ",
"                          1.D h M u.n.S 6.6.4.>.                            ",
"                        V Z k 4 l.V.V.' M.n.F b                             ",
"                      2.V B p p K.L.L.+.V.m.V r                             ",
"                    ,.v n V N h y.K.+.H.N.n.V m *                           ",
"                ,.=.<.: * n n u ] B. .A.n.Q $ f &                           ",
"                    <., * * ; * 8.m.^ A.j.) $ $ $                           ",
"                    >.$.  * r ( w./ . ~ q.} W $                             ",
"                            & ! ..c.G.h.o.F.L.                              ",
"                              m.k.0.8.P 9.D.L.L.                            ",
"                              S.b.{ [ = @.n.H.L.                            ",
"                            v.s.Y O.d.# 0 ^ n.A.L.                          ",
"                            Y X.f.A.| < 9 3 ` e.D.H.                        ",
"                        p.U a.C.H.k.z 3 2 9 3 7 ^ V.                        ",
"                  p.R L G   L.L.V.@.@ 3 # < 3 q q <                         ",
"                p.U H       L.K.t.C 9 @ # 1 @ < q q q                       ",
"            p.Y H         L.J.N.0 9 9 o @ . 9 # + q +                       ",
"          I K             L.A.^ 3 2 < @ . # @ . . . .                       ",
"                        L.D.9.. @ . . < + . . . . . .                       ",
"                        A.@.c . . . . . . . o 1 o +                         ",
"                      z.r._ - + . . . . . . 8 l | c                         ",
"                      C n.n.z . . . . . . . . z n.A.                        ",
"                                                                            ",
"                                                                            "
};
