/* XPM */
static char *_ca0b73031824ab79b2dee35537ce2d013YkIvk7si4bJffg[] = {
/* columns rows colors chars-per-pixel */
"36 36 165 2 ",
"   c None",
".  c #331A19",
"X  c #351B1A",
"o  c #361C1B",
"O  c #381E1D",
"+  c #3A1F1E",
"@  c #3B201F",
"#  c #341A25",
"$  c #371C27",
"%  c #3C1E2B",
"&  c #3E1F2C",
"*  c #3D2120",
"=  c #3E2221",
"-  c #3C2323",
";  c #3E202D",
":  c #3E212E",
">  c #5E1635",
",  c #402423",
"<  c #432625",
"1  c #402727",
"2  c #472827",
"3  c #40212F",
"4  c #41212F",
"5  c #462E2E",
"6  c #482928",
"7  c #482B2B",
"8  c #4A2B2A",
"9  c #4A2C2C",
"0  c #4D2D2C",
"q  c #432330",
"w  c #442331",
"e  c #432532",
"r  c #452432",
"t  c #442734",
"y  c #482634",
"u  c #492635",
"i  c #482736",
"p  c #4A2736",
"a  c #462935",
"s  c #482937",
"d  c #4A2937",
"f  c #4E2A3A",
"g  c #4F2A3A",
"h  c #4C2D3B",
"j  c #493031",
"k  c #4C3435",
"l  c #523939",
"z  c #53393A",
"x  c #553D3E",
"c  c #69212B",
"v  c #712C3D",
"b  c #402543",
"n  c #4F3440",
"m  c #543140",
"M  c #553241",
"N  c #563242",
"B  c #543442",
"V  c #5C3747",
"C  c #563F40",
"Z  c #583E49",
"A  c #4F3757",
"S  c #6D2745",
"D  c #652E46",
"F  c #693B4F",
"G  c #442B61",
"H  c #4B3169",
"J  c #4D326C",
"K  c #50346F",
"L  c #503570",
"P  c #523671",
"I  c #573A77",
"U  c #583A77",
"Y  c #5A3D7B",
"T  c #5B3E7C",
"R  c #5C3E7D",
"E  c #594043",
"W  c #594143",
"Q  c #5C4346",
"!  c #5E444F",
"~  c #5F484A",
"^  c #624752",
"/  c #654E52",
"(  c #6B4E5A",
")  c #685054",
"_  c #6A505B",
"`  c #6D4F62",
"'  c #745261",
"]  c #725B60",
"[  c #745C60",
"{  c #735B65",
"}  c #7C5969",
"|  c #78596D",
" . c #6B4971",
".. c #654B7C",
"X. c #7C5C76",
"o. c #766065",
"O. c #7B666A",
"+. c #7E686E",
"@. c #970F3F",
"#. c #9B103F",
"$. c #AC163C",
"%. c #AC163D",
"&. c #BE1B3A",
"*. c #C11C3A",
"=. c #C61D39",
"-. c #CA1F39",
";. c #CE2038",
":. c #8A0B41",
">. c #930E40",
",. c #9E2E51",
"<. c #843A57",
"1. c #914766",
"2. c #876675",
"3. c #886473",
"4. c #896673",
"5. c #826C75",
"6. c #836C75",
"7. c #846F75",
"8. c #866C77",
"9. c #886A75",
"0. c #8B6D77",
"q. c #8D6879",
"w. c #8D6B78",
"e. c #886F79",
"r. c #8A6D7A",
"t. c #857075",
"y. c #8D737E",
"u. c #8B757C",
"i. c #8C747D",
"p. c #8F747F",
"a. c #8E797F",
"s. c #A6666C",
"d. c #5F4181",
"f. c #6A5082",
"g. c #775C8E",
"h. c #776086",
"j. c #82688B",
"k. c #816C8A",
"l. c #916C82",
"z. c #966F80",
"x. c #937D85",
"c. c #917C8F",
"v. c #97828A",
"b. c #98838B",
"n. c #99848C",
"m. c #99858D",
"M. c #9C878F",
"N. c #9B888D",
"B. c #9B8794",
"V. c #9E8A90",
"C. c #9E8A92",
"Z. c #A18D94",
"A. c #A58F98",
"S. c #A68F99",
"D. c #A08C9F",
"F. c #A69299",
"G. c #AA969E",
"H. c #AB979F",
"J. c #A691A7",
"K. c #AF9CA4",
"L. c #B4A2A9",
"P. c #B7A4AB",
"I. c #B9A7AE",
"U. c #BCA9B0",
"Y. c #BEACB3",
/* pixels */
"                                                                        ",
"                                                                        ",
"                                                                        ",
"                          g r                                           ",
"                          g i w r                                       ",
"                          g g i r r                                     ",
"                            g g i w w r                                 ",
"                              g g i r r r r                             ",
"                                g i w r r r r                           ",
"                                  a a 4 w r r r                         ",
"                                  c s.a & w r r r                       ",
"                              ;.$.t C.6.  % ; ; 4                       ",
"                          ;.=.-.$.@.> #.&.  % % %                       ",
"                      ;.#.#.>.@.>.@.:.#.*.;.                            ",
"                      :.S V % _ b.4.<.1.1.,.;.                          ",
"                      D m i ! n.Z.t.7.b.i.F v                           ",
"                    V V i i { I.Y.N.N.b.8.V e                           ",
"                  & N V V d ^ G.Y.x P.b.u.V m $                         ",
"                  & & m V V ; 6.K.E Z.v.( ; V ;                         ",
"                    % % % & h r.v.x Z.p.Z # # #                         ",
"                      & % s ' 4.E - 9.X.` B #                           ",
"                        % B } q.0.[ q.U j.A.                            ",
"                            p.2.p.l.| 9.K.Y.Y.                          ",
"                          L.L.S.}  .b x.n.K.Y.                          ",
"                          Y.J.f.G A + Q t.v.P.Y.                        ",
"                          g.d...c.5 2 8 5 ] n.P.Y.                      ",
"                      d.R P k.B.+.o 8 * 8 2 - ) C.                      ",
"                  d.I P h.D.I.b.W * 8 o * 8 2 2 l                       ",
"              d.T P G D.Y.Y.Z./ < 8 o + , + < 0 0 0                     ",
"            d.K G     Y.Y.C.Q 8 2 2 o . . * + 2 2 2                     ",
"        d.Y H         Y.C.~ * * . + < . . . . . . .                     ",
"    P P J           I.C.i.- . . . . . . . . , o *                       ",
"                    x.O.5 @ o . . . . . o * 9 x l                       ",
"                  / o.G.E @ . . . . . . o < k F.C.                      ",
"                                                                        ",
"                                                                        "
};
