/* XPM */
static char *f6059735bcda4d1c950b5a22c1f859bebilH1AHYqieoxanT[] = {
/* columns rows colors chars-per-pixel */
"36 34 165 2 ",
"   c None",
".  c #331A19",
"X  c #351B1A",
"o  c #351C1B",
"O  c #361C1B",
"+  c #371D1C",
"@  c #381E1D",
"#  c #3A1F1E",
"$  c #3B201F",
"%  c #3C201F",
"&  c #331A27",
"*  c #341A25",
"=  c #381E29",
"-  c #3C1E2B",
";  c #3D1F2C",
":  c #3D2120",
">  c #3E2221",
",  c #3F2626",
"<  c #3E202D",
"1  c #3E212E",
"2  c #4D1A30",
"3  c #77103C",
"4  c #402423",
"5  c #422524",
"6  c #432625",
"7  c #432827",
"8  c #40202E",
"9  c #41212F",
"0  c #482928",
"q  c #4A2B2A",
"w  c #4B2C2B",
"e  c #4A2C2C",
"r  c #4B2E2D",
"t  c #492E2E",
"y  c #4D2D2C",
"u  c #432331",
"i  c #442432",
"p  c #452432",
"a  c #442533",
"s  c #4A2736",
"d  c #4D2938",
"f  c #4C2B39",
"g  c #4E2A3A",
"h  c #4F2A3A",
"j  c #552036",
"k  c #5C233B",
"l  c #502E3D",
"z  c #4C3435",
"x  c #4E323E",
"c  c #52303F",
"v  c #53393A",
"b  c #543D3F",
"n  c #543140",
"m  c #5C3747",
"M  c #563F40",
"N  c #553945",
"B  c #593F4A",
"V  c #732144",
"C  c #702444",
"Z  c #6A3445",
"A  c #75304D",
"S  c #703D53",
"D  c #442B61",
"F  c #472B65",
"G  c #492F67",
"H  c #593D6B",
"J  c #503570",
"K  c #533873",
"L  c #553975",
"P  c #573B78",
"I  c #583C79",
"U  c #593C7A",
"Y  c #594143",
"T  c #5C4346",
"R  c #5D4547",
"E  c #624652",
"W  c #674850",
"Q  c #654E52",
"!  c #664A56",
"~  c #694851",
"^  c #6C4A5A",
"/  c #704F5E",
"(  c #695255",
")  c #6A505B",
"_  c #70535F",
"`  c #5C4168",
"'  c #5D417A",
"]  c #6E5069",
"[  c #725B60",
"{  c #725863",
"}  c #735C61",
"|  c #745E61",
" . c #7C5969",
".. c #7F5E6D",
"X. c #69517E",
"o. c #755971",
"O. c #7C5C76",
"+. c #796366",
"@. c #796368",
"#. c #7C656A",
"$. c #7E686E",
"%. c #800D3E",
"&. c #980F3F",
"*. c #83143A",
"=. c #991A37",
"-. c #92103E",
";. c #9B103F",
":. c #A7143D",
">. c #A8143D",
",. c #AC163D",
"<. c #B5183B",
"1. c #B7193B",
"2. c #BD1B3A",
"3. c #8B2437",
"4. c #AA2035",
"5. c #B7253B",
"6. c #C31C39",
"7. c #C51D39",
"8. c #CE2038",
"9. c #811C45",
"0. c #8D2953",
"q. c #9A2D52",
"w. c #B52040",
"e. c #903E61",
"r. c #88586C",
"t. c #836371",
"y. c #856071",
"u. c #806A77",
"i. c #866C74",
"p. c #846F75",
"a. c #886F79",
"s. c #946478",
"d. c #916E7D",
"f. c #8A727B",
"g. c #B8696F",
"h. c #5F4181",
"j. c #684C83",
"k. c #72568B",
"l. c #8B758F",
"z. c #927380",
"x. c #9A7686",
"c. c #907982",
"v. c #917C83",
"b. c #947E87",
"n. c #917996",
"m. c #907C94",
"M. c #948086",
"N. c #968288",
"B. c #97828A",
"V. c #9A838B",
"C. c #99858D",
"Z. c #9C878F",
"A. c #958198",
"S. c #A18D94",
"D. c #A38F97",
"F. c #A49098",
"G. c #AE919E",
"H. c #AB979F",
"J. c #A894A3",
"K. c #AF9CA4",
"L. c #AD99AD",
"P. c #B4A2A9",
"I. c #B8A5AC",
"U. c #B9A7AE",
"Y. c #BEACB3",
/* pixels */
"                                                                        ",
"                                                                        ",
"                                                                        ",
"                            d p i                                       ",
"                          l d s i i                                     ",
"                            d l d i p p                                 ",
"                              l f s p p i                               ",
"                                l d p p i i p                           ",
"                                  ; B < i i i                           ",
"                                  ; g.B < 8 i i p                       ",
"                            8.8.2.3 S e.=.; < < ;                       ",
"                          <.,.<.>.,.%.,.7.                              ",
"                        ;.V k j r.s.9.0.q.1.8.                          ",
"                        C m i ) V.B.Q B.c.A 3.                          ",
"                    5.Z m i i b.Y.Y.+.B.a.m 8                           ",
"                  8.4.f m m f { U.+.P.B.f.m c *                         ",
"                7.<.*.< h n f N D.} H.B.! < x *                         ",
"                  9.-.2 < ; i / i.Y C.d.E < *                           ",
"                  8.:.  - - ^ y.~ . ~ O.] x *                           ",
"                            _ ..x.G.d.o.L.Y.                            ",
"                            B.B.t. .F f.H.Y.Y.                          ",
"                            J.n.H ` & p.C.K.Y.                          ",
"                          k.j.' l.u.% e R v.H.Y.                        ",
"                        h.I X.m.H.Q 5 y e T $.H.P.                      ",
"                    h.L G A.Y.P.$.O y . > y 5 v Q                       ",
"                h.I D     Y.Y.S.} 6 % 6 5 5 q y y                       ",
"              U K         Y.H.#.t y $ > $ 6 % e e                       ",
"          U K           Y.U.} 7 0 5 O . > % . O @                       ",
"          D             Y.S.z 5 O $ 5 . . . . . .                       ",
"                      U.Z.$.. . . . . . . . 5 @ @                       ",
"                      M.( % O . . . . . O 0 t b ,                       ",
"                      @.F.b O . . . . . O % Q D.B.                      ",
"                                                                        ",
"                                                                        "
};
